<svg xmlns="http://www.w3.org/2000/svg" viewBox="0 0 512 512">
  <title>action_point</title>
  <path d="M426.67,512H85.33A21.33,21.33,0,0,1,64,490.67V21.33A21.33,21.33,0,0,1,85.33,0H426.67A21.33,21.33,0,0,1,448,21.33V490.67A21.33,21.33,0,0,1,426.67,512Zm-320-42.67H405.33V42.67H106.67ZM362.67,320a21.34,21.34,0,0,0-21.34-21.33H170.67a21.33,21.33,0,1,0,0,42.66H341.33A21.34,21.34,0,0,0,362.67,320Zm0,85.33A21.34,21.34,0,0,0,341.33,384H170.67a21.34,21.34,0,1,0,0,42.67H341.33A21.35,21.35,0,0,0,362.67,405.33ZM277.33,170.67v-64a21.33,21.33,0,1,0-42.66,0v64a21.33,21.33,0,1,0,42.66,0ZM256,213.33a21.34,21.34,0,1,0,21.33,21.34A21.33,21.33,0,0,0,256,213.33Z"/>
</svg>
