<svg xmlns="http://www.w3.org/2000/svg" viewBox="0 0 512 512">
  <title>bug</title>
  <path d="M339.84,142.11a6.14,6.14,0,0,1,0,5.77,5.52,5.52,0,0,1-5.29,2.89H180.11a5.52,5.52,0,0,1-5.29-2.89,6.14,6.14,0,0,1,0-5.77c13-25,28.87-42.82,46.67-53.4L191.66,31c-4.81-9.15-1.44-20.21,7.7-24.54a17.28,17.28,0,0,1,24,7.7l33.2,63.5,33.2-63.5a17.94,17.94,0,0,1,24.53-7.7c8.66,4.33,12,15.39,7.7,24.54L292.21,87.75C310,98.33,326.37,116.61,339.84,142.11ZM496.2,312.9l-58.69-21.65a22.58,22.58,0,0,0-8.19-1.44H373c-1-16.36-4.34-31.75-8.66-46.67L463,198.4a24.25,24.25,0,0,0,11.55-32.23,23.56,23.56,0,0,0-31.75-11.55l-95.74,44.26c0-1-.48-1.44-1-2.4A23.9,23.9,0,0,0,324.92,184H185.4a24.49,24.49,0,0,0-21.17,12.51c-.47.48-.47,1-1,1.44l-92.85-43.3A24.21,24.21,0,1,0,49.73,198.4L146,242.66c-4.33,14.91-7.69,30.79-8.66,47.15H82.93a27.25,27.25,0,0,0-8.66,1.44L15.57,312.9A24.18,24.18,0,0,0,1.62,344.18C5,353.8,14.13,359.57,24.23,359.57a22.49,22.49,0,0,0,8.18-1.44l54.85-20.21h48.59a266.86,266.86,0,0,0,14,73.13L48.29,458.2a24.27,24.27,0,0,0,10.1,46.18,24,24,0,0,0,10.1-2.4L170,454.83a.47.47,0,0,0,.48-.48c21.65,33.19,51.48,53.4,84.67,53.4,33.68,0,63.51-20.69,85.16-54.36.48.48,1.44,1,1.92,1.44l102,47.15A23.19,23.19,0,0,0,476,490c5.78-12,.48-26-11.54-31.75L362,411.05c-.48,0-1-.48-1.44-.48a266.5,266.5,0,0,0,14-72.65H425l54.36,20.21a27.3,27.3,0,0,0,8.66,1.44,24.36,24.36,0,0,0,22.61-15.39A24.83,24.83,0,0,0,496.2,312.9Z"/>
</svg>
