<svg xmlns="http://www.w3.org/2000/svg" viewBox="0 0 700 700">
	<title>calendar</title>
	<path d="M678.86,120.77h-177V72.57a21.15,21.15,0,1,0-42.29,0v48.2H240.41V72.57a21.15,21.15,0,1,0-42.29,0v48.2h-177A21.13,21.13,0,0,0,0,141.91V627.43a21.15,21.15,0,0,0,21.14,21.15H678.86A21.15,21.15,0,0,0,700,627.43V141.91A21.13,21.13,0,0,0,678.86,120.77ZM657.72,606.29H42.28V343.94H657.72Zm0-304.63H42.28V163.05H198.12v48.2a21.15,21.15,0,0,0,42.29,0v-48.2H459.59v48.2a21.15,21.15,0,0,0,42.29,0v-48.2H657.72Z"/>
</svg>