<svg xmlns="http://www.w3.org/2000/svg" viewBox="0 0 700 700"><title>edit</title><g id="Laag_2" data-name="Laag 2"><g id="Laag_1-2" data-name="Laag 1"><path d="M.74,525,0,669a31.23,31.23,0,0,0,8.88,22.15A29.66,29.66,0,0,0,30.34,700l143.55-.74a29.66,29.66,0,0,0,21.46-8.86L691.12,195.68c11.84-11.82,11.84-31,0-43.57L549.05,8.86C537.21-2.95,518-2.95,505.39,8.86l-99.15,99.68L9.62,503.59C4.44,509.49.74,516.88.74,525ZM527.59,73.84l99.89,99.68-56.23,56.12L471.35,130ZM62.16,538.29,427.7,173.52l99.89,99.69-365.54,364L61.42,638Z"/></g></g></svg>