<svg xmlns="http://www.w3.org/2000/svg" viewBox="0 0 512 512">
  <title>epic</title>
  <path d="M505.81,134.19l-128-128A22,22,0,0,0,362.67,0H149.33a22,22,0,0,0-15.14,6.19l-128,128A21.63,21.63,0,0,0,0,149.33V490.67A21.39,21.39,0,0,0,21.33,512H490.67A21.39,21.39,0,0,0,512,490.67V149.33A21.63,21.63,0,0,0,505.81,134.19ZM158.08,42.67H353.92L439,128H341.33A21.39,21.39,0,0,0,320,149.33a64,64,0,1,1-128,0A21.39,21.39,0,0,0,170.67,128H73ZM469.33,469.33H42.67v-128h108.8a106.69,106.69,0,0,0,209.06,0h108.8Zm-273.7-128H316.37a64,64,0,0,1-120.74,0Zm273.7-42.66H42.67v-128h108.8a106.69,106.69,0,0,0,209.06,0h108.8Z"/>
</svg>
