<svg xmlns="http://www.w3.org/2000/svg" viewBox="0 0 512 512">
  <title>goal</title>
  <path d="M256,512C114.84,512,0,397.16,0,256S114.84,0,256,0,512,114.84,512,256,397.16,512,256,512Zm0-469.33C138.36,42.67,42.67,138.36,42.67,256S138.36,469.33,256,469.33,469.33,373.64,469.33,256,373.64,42.67,256,42.67Zm0,384C161.9,426.67,85.33,350.1,85.33,256S161.9,85.33,256,85.33,426.67,161.9,426.67,256,350.1,426.67,256,426.67ZM256,128A128,128,0,1,0,384,256,128.14,128.14,0,0,0,256,128Zm0,42.67A85.33,85.33,0,1,0,341.33,256,85.33,85.33,0,0,0,256,170.67Z"/>
</svg>
