<svg xmlns="http://www.w3.org/2000/svg" viewBox="0 0 512 512">
  <title>internal</title>
  <path d="M403.64,93.88,136.57,2.43C127.81-.77,112.42-1.63,102,5A36.3,36.3,0,0,0,85.29,35.55V490.63A21.42,21.42,0,0,0,106.66,512H405.34a21.29,21.29,0,0,0,21.37-21.37v-363C426.71,113.53,418.38,100.5,403.64,93.88Zm-169,375.39V383.81h42.74v85.46Zm149.35,0H320.1V372.06a31,31,0,0,0-31-31H222.88a31,31,0,0,0-31,31v97.21H128V44.52l256,87.6ZM320,213H192a21.34,21.34,0,0,1,0-42.67H320A21.34,21.34,0,0,1,320,213Zm0,85.33H192a21.34,21.34,0,0,1,0-42.67H320a21.34,21.34,0,0,1,0,42.67Z"/>
</svg>
