<svg xmlns="http://www.w3.org/2000/svg" viewBox="0 0 512 512">
  <title>note</title>
  <path d="M104.51,496.25A32.6,32.6,0,0,1,90.36,493,34.24,34.24,0,0,1,71.07,461.5l.29-45.5H33.41C15,416,0,400.54,0,381.53V66.47C0,47.46,15,32,33.41,32H478.59C497,32,512,47.46,512,66.47V381.53c0,19-15,34.47-33.41,34.47h-282l-70.16,71.63a16.22,16.22,0,0,1-1.38,1.25A32.6,32.6,0,0,1,104.51,496.25ZM33.41,64c-.5,0-1.41.94-1.41,2.47V381.53c0,1.53.91,2.47,1.41,2.47H87.46a16,16,0,0,1,16,16.1l-.39,61.61a2.79,2.79,0,0,0,.77,2.17,1.2,1.2,0,0,0,.72.37h0l73.89-75.45a16,16,0,0,1,11.43-4.8h288.7c.5,0,1.41-.94,1.41-2.47V66.47c0-1.53-.91-2.47-1.41-2.47ZM416,176a16,16,0,0,0-16-16H112a16,16,0,0,0,0,32H400A16,16,0,0,0,416,176Zm0,96a16,16,0,0,0-16-16H112a16,16,0,0,0,0,32H400A16,16,0,0,0,416,272Z" style="fill: #1d1d1b"/>
</svg>
