<svg xmlns="http://www.w3.org/2000/svg" viewBox="0 0 700 700">
	<title>ic_search</title>
	<path d="M690.3 643.8L512.6 465.9c45.9-51.3 71-115.9 71-184.1C583.7 126.4 452.7 0 291.9 0 130.9 0 0 126.4 0 281.9c0 155.2 130.9 281.9 291.9 281.9 61.1 0 120.8-18.7 170.9-53.7l179.7 180.1c12.9 12.9 33.6 13.2 46.9 0.8 13.2-12.2 14.1-32.8 1.9-46.1C691 644.5 690.7 644.1 690.3 643.8L690.3 643.8zM291.9 66.1c123.9 0 224.8 96.8 224.8 215.8S415.9 497.6 291.9 497.6c-124.1 0-225-96.8-225-215.8S167.8 66.1 291.9 66.1z"/>
</svg>