<svg xmlns="http://www.w3.org/2000/svg" viewBox="0 0 512 512">
  <title>task</title>
  <path d="M426.67,512H85.33A21.33,21.33,0,0,1,64,490.67V21.33A21.33,21.33,0,0,1,85.33,0H426.67A21.33,21.33,0,0,1,448,21.33V490.67A21.33,21.33,0,0,1,426.67,512Zm-320-42.67H405.33V42.67H106.67ZM362.67,320a21.34,21.34,0,0,0-21.34-21.33H170.67a21.33,21.33,0,1,0,0,42.66H341.33A21.34,21.34,0,0,0,362.67,320Zm0,85.33A21.34,21.34,0,0,0,341.33,384H170.67a21.34,21.34,0,1,0,0,42.67H341.33A21.35,21.35,0,0,0,362.67,405.33ZM258.1,255.9a21.33,21.33,0,0,0,15.65-9.4l85.33-128a21.33,21.33,0,0,0-35.5-23.67L252.69,201.18l-45.61-45.6a21.33,21.33,0,0,0-30.16,30.17l64,64A21.31,21.31,0,0,0,256,256C256.7,256,257.4,256,258.1,255.9Z"/>
</svg>
