<svg xmlns="http://www.w3.org/2000/svg" viewBox="0 0 700 700">
	<title>trash</title>
	<path d="M458.27,109.55,479.88,57,303,0,281.37,52.55l-130.27-42L117,93.56,554.42,234.5l34.12-83Z"/>
	<path d="M111.46,251.12V700H549V251.12Zm115.7,333.66a26.89,26.89,0,0,1-26.89,26.89H187.93A26.89,26.89,0,0,1,161,584.78V366.34a26.89,26.89,0,0,1,26.89-26.89h12.34a26.89,26.89,0,0,1,26.89,26.89Zm134.72,0A26.89,26.89,0,0,1,335,611.67H322.66a26.89,26.89,0,0,1-26.89-26.89V366.34a26.89,26.89,0,0,1,26.89-26.89H335a26.89,26.89,0,0,1,26.89,26.89Zm137.5,0a26.89,26.89,0,0,1-26.89,26.89H460.16a26.89,26.89,0,0,1-26.89-26.89V366.34a26.89,26.89,0,0,1,26.89-26.89h12.33a26.89,26.89,0,0,1,26.89,26.89Z"/>
</svg>