<svg xmlns="http://www.w3.org/2000/svg" viewBox="0 0 700 700">
	<defs><style>.cls-1{fill:#ff6100;}.cls-2{fill:#ccc;}</style></defs>
	<path class="cls-1" d="M543.42,235.15,337.79,511.64c-7.44,8.76-16.62,13.14-26.25,13.14a33.17,33.17,0,0,1-25.81-12.27L160.17,391.32c-13.13-12.24-15.75-33.68-5.25-49.43a34.32,34.32,0,0,1,24.5-15.74c9.62-1.33,19.25,2.18,26.69,9.18L307.17,432,490.48,186.14l.44.45a33.35,33.35,0,0,1,23.62-11.81c9.63.42,19.25,3.5,26.25,10.93C553.48,198.83,554.36,220.28,543.42,235.15Z"/>
	<path class="cls-2" d="M614.39,700H85.61A85.71,85.71,0,0,1,0,614.39V85.61A85.71,85.71,0,0,1,85.61,0H614.39A85.71,85.71,0,0,1,700,85.61V614.39A85.71,85.71,0,0,1,614.39,700ZM85.61,50.36A35.29,35.29,0,0,0,50.36,85.61V614.39a35.29,35.29,0,0,0,35.25,35.25H614.39a35.29,35.29,0,0,0,35.25-35.25V85.61a35.29,35.29,0,0,0-35.25-35.25Z"/>
</svg>