<svg xmlns="http://www.w3.org/2000/svg" viewBox="0 0 679 537.13"><defs><style>.cls-1{fill:#14009b;}.cls-2{fill:none;stroke:#14009b;stroke-miterlimit:10;stroke-width:4px;}.cls-3{fill:#ff6100;}.cls-4{fill:#fff;}</style></defs><title>empty-rocket)hanger</title><g id="Layer_2" data-name="Layer 2"><g id="Layer_1-2" data-name="Layer 1"><path class="cls-1" d="M73.57,520a2.1,2.1,0,0,1-2.09-2.09V415.57a2,2,0,0,1,.25-1l87.69-164.94a2.07,2.07,0,0,1,1.84-1.11H188.4a2.08,2.08,0,0,1,2.09,2.09V363.37a2.09,2.09,0,1,1-4.17,0V252.71h-23.8L75.66,416.09V517.88A2.1,2.1,0,0,1,73.57,520Z"/><path class="cls-1" d="M259.18,389.18H143.78a2.09,2.09,0,1,1,0-4.17h115.4a2.09,2.09,0,1,1,0,4.17Z"/><path class="cls-1" d="M242.48,418.41H129.17a2.09,2.09,0,1,1,0-4.17H242.48a2.09,2.09,0,1,1,0,4.17Z"/><path class="cls-1" d="M227.86,443.47H116.64a2.09,2.09,0,1,1,0-4.18H227.86a2.09,2.09,0,1,1,0,4.18Z"/><path class="cls-1" d="M215.34,468.52H102a2.09,2.09,0,0,1,0-4.17H215.34a2.09,2.09,0,0,1,0,4.17Z"/><path class="cls-1" d="M200.72,493.58H89.5a2.09,2.09,0,1,1,0-4.18H200.72a2.09,2.09,0,1,1,0,4.18Z"/><path class="cls-2" d="M210,518.63,283.87,376a2,2,0,0,1,1.81-1.1H305"/><path class="cls-1" d="M235.49,432.68a2.09,2.09,0,0,1-2.09-2.09V330.47a2.09,2.09,0,0,1,4.17,0V430.59A2.09,2.09,0,0,1,235.49,432.68Z"/><path class="cls-1" d="M116.64,439.4a2.1,2.1,0,0,1-2.09-2.09V334.56a2.09,2.09,0,0,1,4.18,0V437.31A2.1,2.1,0,0,1,116.64,439.4Z"/><rect class="cls-1" y="534.63" width="679" height="2"/><path class="cls-3" d="M411,481.13h-6a1.5,1.5,0,0,1,0-3h6a1.5,1.5,0,0,1,0,3Z"/><path class="cls-3" d="M472,481.13H460a1.5,1.5,0,0,1,0-3H472a1.5,1.5,0,0,1,0,3Zm-78.91,0H381.1a1.5,1.5,0,0,1,0-3h11.95a1.5,1.5,0,1,1,0,3Zm-23.9-.09H369a16.59,16.59,0,0,1-11.18-6.23,1.5,1.5,0,1,1,2.36-1.85,13.59,13.59,0,0,0,9.14,5.09,1.5,1.5,0,0,1-.16,3ZM483.9,481a1.5,1.5,0,0,1-.2-3,13.57,13.57,0,0,0,9-5.37,1.5,1.5,0,1,1,2.42,1.78,16.59,16.59,0,0,1-11,6.56ZM355.8,464.14a1.5,1.5,0,0,1-1.5-1.5V450.69a1.5,1.5,0,0,1,3,0v11.95A1.5,1.5,0,0,1,355.8,464.14Zm141-.46a1.5,1.5,0,0,1-1.5-1.5V450.23a1.5,1.5,0,0,1,3,0v11.95A1.5,1.5,0,0,1,496.8,463.68Zm-141-23.44a1.5,1.5,0,0,1-1.5-1.5V426.79a1.5,1.5,0,0,1,3,0v11.95A1.5,1.5,0,0,1,355.8,440.24Zm141-.46a1.5,1.5,0,0,1-1.5-1.5V426.33a1.5,1.5,0,0,1,3,0v11.95A1.5,1.5,0,0,1,496.8,439.78Zm-141-23.45a1.5,1.5,0,0,1-1.5-1.5V402.88a1.5,1.5,0,0,1,3,0v11.95A1.5,1.5,0,0,1,355.8,416.33Zm141-.45a1.5,1.5,0,0,1-1.5-1.5V402.43a1.5,1.5,0,0,1,3,0v11.95A1.5,1.5,0,0,1,496.8,415.88Zm-141-23.45a1.5,1.5,0,0,1-1.5-1.5V379a1.5,1.5,0,0,1,3,0v11.95A1.5,1.5,0,0,1,355.8,392.43Zm141-.45a1.5,1.5,0,0,1-1.5-1.5v-12a1.5,1.5,0,0,1,3,0v12A1.5,1.5,0,0,1,496.8,392Zm-141-23.45a1.5,1.5,0,0,1-1.5-1.5V355.08a1.5,1.5,0,0,1,3,0V367A1.5,1.5,0,0,1,355.8,368.53Zm141-.46a1.5,1.5,0,0,1-1.5-1.5V354.62a1.5,1.5,0,0,1,3,0v11.95A1.5,1.5,0,0,1,496.8,368.07Zm-141-23.44a1.5,1.5,0,0,1-1.5-1.5V331.18a1.5,1.5,0,0,1,3,0v11.95A1.5,1.5,0,0,1,355.8,344.63Zm141-.46a1.5,1.5,0,0,1-1.5-1.5V330.72a1.5,1.5,0,0,1,3,0v11.95A1.5,1.5,0,0,1,496.8,344.17Zm-141-23.44a1.5,1.5,0,0,1-1.5-1.5v-12a1.5,1.5,0,0,1,3,0v12A1.5,1.5,0,0,1,355.8,320.73Zm141-.46a1.5,1.5,0,0,1-1.5-1.5V306.82a1.5,1.5,0,0,1,3,0v11.95A1.5,1.5,0,0,1,496.8,320.27Zm-141-23.45a1.5,1.5,0,0,1-1.5-1.5V283.37a1.5,1.5,0,0,1,3,0v11.95A1.5,1.5,0,0,1,355.8,296.82Zm141-.45a1.5,1.5,0,0,1-1.5-1.5V282.92a1.5,1.5,0,0,1,3,0v11.95A1.5,1.5,0,0,1,496.8,296.37Zm-141-23.45a1.5,1.5,0,0,1-1.5-1.5V259.47a1.5,1.5,0,0,1,3,0v11.95A1.5,1.5,0,0,1,355.8,272.92Zm141-.45a1.5,1.5,0,0,1-1.5-1.5V259a1.5,1.5,0,0,1,3,0v12A1.5,1.5,0,0,1,496.8,272.47ZM355.8,249a1.5,1.5,0,0,1-1.5-1.5v-12a1.5,1.5,0,0,1,3,0v12A1.5,1.5,0,0,1,355.8,249Zm141-.46a1.5,1.5,0,0,1-1.5-1.5V235.11a1.5,1.5,0,0,1,3,0v11.95A1.5,1.5,0,0,1,496.8,248.56Zm-141-23.44a1.5,1.5,0,0,1-1.5-1.5v-12a1.5,1.5,0,0,1,3,0v12A1.5,1.5,0,0,1,355.8,225.12Zm141-.46a1.5,1.5,0,0,1-1.5-1.5V211.21a1.5,1.5,0,1,1,3,0v11.95A1.5,1.5,0,0,1,496.8,224.66Zm-141-23.45a1.5,1.5,0,0,1-1.5-1.5v-12a1.5,1.5,0,1,1,3,0v12A1.5,1.5,0,0,1,355.8,201.21Zm141-.45a1.5,1.5,0,0,1-1.5-1.5V187.31a1.5,1.5,0,0,1,3,0v11.95A1.5,1.5,0,0,1,496.8,200.76Zm-141-23.45a1.5,1.5,0,0,1-1.5-1.5V163.86a1.5,1.5,0,0,1,3,0v11.95A1.5,1.5,0,0,1,355.8,177.31Zm141-.45a1.5,1.5,0,0,1-1.5-1.5v-12a1.5,1.5,0,0,1,3,0v12A1.5,1.5,0,0,1,496.8,176.86Zm-141-23.45a1.5,1.5,0,0,1-1.5-1.5V140a1.5,1.5,0,1,1,3,0v11.95A1.5,1.5,0,0,1,355.8,153.41Zm141-.46a1.5,1.5,0,0,1-1.5-1.5V139.5a1.5,1.5,0,1,1,3,0v11.95A1.5,1.5,0,0,1,496.8,153Zm-141-23.44a1.5,1.5,0,0,1-1.5-1.5V116.06a1.5,1.5,0,0,1,3,0V128A1.5,1.5,0,0,1,355.8,129.51Zm141-.46a1.5,1.5,0,0,1-1.5-1.5v-12a1.5,1.5,0,1,1,3,0v12A1.5,1.5,0,0,1,496.8,129.05ZM361.12,106.92a1.57,1.57,0,0,1-.7-.17,1.51,1.51,0,0,1-.63-2l5.57-10.58a1.5,1.5,0,0,1,2.65,1.4l-5.56,10.58A1.5,1.5,0,0,1,361.12,106.92Zm130.09-.37a1.49,1.49,0,0,1-1.32-.8l-5.63-10.54a1.5,1.5,0,1,1,2.64-1.41l5.63,10.54a1.5,1.5,0,0,1-.61,2A1.53,1.53,0,0,1,491.21,106.55Zm-119-20.78a1.51,1.51,0,0,1-1.33-2.2L376.49,73a1.5,1.5,0,1,1,2.65,1.4L373.58,85A1.5,1.5,0,0,1,372.25,85.77ZM480,85.46a1.51,1.51,0,0,1-1.32-.79L473,74.13a1.5,1.5,0,0,1,2.65-1.42l5.63,10.55a1.49,1.49,0,0,1-1.33,2.2ZM383.38,64.62a1.52,1.52,0,0,1-.7-.18,1.49,1.49,0,0,1-.62-2l5.56-10.58a1.5,1.5,0,0,1,2.66,1.4l-5.57,10.57A1.51,1.51,0,0,1,383.38,64.62Zm85.32-.24a1.5,1.5,0,0,1-1.33-.8L461.74,53a1.5,1.5,0,1,1,2.65-1.41L470,62.17a1.51,1.51,0,0,1-1.32,2.21ZM394.51,43.46a1.44,1.44,0,0,1-.69-.17,1.49,1.49,0,0,1-.63-2l5.56-10.57a1.5,1.5,0,0,1,2.66,1.4l-5.57,10.57A1.5,1.5,0,0,1,394.51,43.46Zm62.93-.17a1.5,1.5,0,0,1-1.32-.79L450.49,32a1.5,1.5,0,1,1,2.64-1.42l5.63,10.55a1.5,1.5,0,0,1-.62,2A1.45,1.45,0,0,1,457.44,43.29Zm-51.79-21a1.45,1.45,0,0,1-.7-.17,1.5,1.5,0,0,1-.63-2l5.57-10.57a1.5,1.5,0,1,1,2.65,1.39L407,21.51A1.48,1.48,0,0,1,405.65,22.31Zm40.53-.1a1.5,1.5,0,0,1-1.32-.8l-5.63-10.54a1.5,1.5,0,1,1,2.65-1.41L447.5,20a1.5,1.5,0,0,1-.61,2A1.53,1.53,0,0,1,446.18,22.21ZM420,4.05a1.5,1.5,0,0,1-.52-2.91,18.6,18.6,0,0,1,12.74,0,1.5,1.5,0,1,1-1,2.82,15.53,15.53,0,0,0-10.67,0A1.58,1.58,0,0,1,420,4.05Z"/><path class="cls-3" d="M448,481.13h-6a1.5,1.5,0,0,1,0-3h6a1.5,1.5,0,0,1,0,3Z"/><path class="cls-3" d="M502,464.83a1.45,1.45,0,0,1-.79-.23c-1.68-1-3.39-2.06-5.1-3a1.5,1.5,0,1,1,1.47-2.61c1.75,1,3.5,2,5.21,3.1a1.5,1.5,0,0,1,.49,2.06A1.51,1.51,0,0,1,502,464.83Z"/><path class="cls-3" d="M550.65,515.93a1.52,1.52,0,0,1-1.31-.77c-1.89-3.42-4-6.79-6.14-10a1.5,1.5,0,0,1,.4-2.08,1.51,1.51,0,0,1,2.09.41c2.22,3.31,4.34,6.75,6.27,10.24a1.5,1.5,0,0,1-1.31,2.23Zm-13.26-19.71a1.52,1.52,0,0,1-1.17-.55c-2.45-3.05-5.05-6-7.75-8.85a1.5,1.5,0,1,1,2.17-2.07c2.75,2.89,5.42,5.93,7.92,9a1.5,1.5,0,0,1-.23,2.11A1.46,1.46,0,0,1,537.39,496.22ZM521,479a1.52,1.52,0,0,1-1-.38c-2.92-2.59-6-5.09-9.12-7.42a1.5,1.5,0,0,1,1.79-2.41c3.2,2.39,6.34,4.94,9.32,7.58a1.5,1.5,0,0,1,.13,2.12A1.49,1.49,0,0,1,521,479Z"/><path class="cls-3" d="M558.31,532.09h0a1.49,1.49,0,0,1-1.39-1c-.73-1.82-1.5-3.66-2.31-5.47a1.5,1.5,0,1,1,2.74-1.22l.91,2.07.73-2a1.5,1.5,0,1,1,2.83,1c-.66,1.91-1.37,3.82-2.12,5.68A1.5,1.5,0,0,1,558.31,532.09Z"/><path class="cls-3" d="M564,514.52a1.57,1.57,0,0,1-.37,0,1.5,1.5,0,0,1-1.09-1.82c1-4,1.81-8,2.43-12.09a1.5,1.5,0,0,1,3,.45c-.64,4.14-1.48,8.3-2.49,12.37A1.5,1.5,0,0,1,564,514.52Zm3.79-24.64h-.09a1.5,1.5,0,0,1-1.41-1.59c.18-2.79.26-5.63.26-8.44,0-1.3,0-2.6,0-3.9a1.5,1.5,0,0,1,1.46-1.54h0a1.5,1.5,0,0,1,1.5,1.46c0,1.32,0,2.65,0,4,0,2.87-.09,5.77-.26,8.62A1.5,1.5,0,0,1,567.76,489.88Zm-.7-24.91a1.5,1.5,0,0,1-1.49-1.33c-.48-4.07-1.16-8.17-2-12.18a1.5,1.5,0,1,1,2.93-.62c.87,4.1,1.56,8.29,2.06,12.45a1.5,1.5,0,0,1-1.31,1.67Zm-5.18-24.4a1.5,1.5,0,0,1-1.43-1.05c-1.22-3.92-2.62-7.82-4.19-11.61a1.5,1.5,0,0,1,2.77-1.15c1.6,3.87,3,7.87,4.28,11.87a1.5,1.5,0,0,1-1,1.88A1.67,1.67,0,0,1,561.88,440.57Zm-9.51-23a1.51,1.51,0,0,1-1.33-.81c-1.9-3.62-4-7.21-6.21-10.67a1.5,1.5,0,0,1,2.53-1.62c2.27,3.53,4.4,7.2,6.34,10.9a1.51,1.51,0,0,1-.63,2A1.6,1.6,0,0,1,552.37,417.53Zm-13.49-21a1.49,1.49,0,0,1-1.18-.58c-2.52-3.23-5.21-6.39-8-9.39a1.5,1.5,0,0,1,2.19-2c2.86,3.07,5.61,6.3,8.18,9.6a1.51,1.51,0,0,1-.27,2.11A1.48,1.48,0,0,1,538.88,396.56Zm-17-18.24a1.47,1.47,0,0,1-1-.39c-3-2.74-6.26-5.38-9.53-7.84a1.51,1.51,0,0,1-.3-2.1,1.49,1.49,0,0,1,2.1-.3c3.35,2.52,6.62,5.21,9.73,8a1.49,1.49,0,0,1,.11,2.12A1.48,1.48,0,0,1,521.9,378.32Z"/><path class="cls-3" d="M502,363.32a1.42,1.42,0,0,1-.79-.23c-1.67-1-3.39-2.06-5.11-3a1.5,1.5,0,0,1,1.48-2.61c1.76,1,3.51,2,5.21,3.1a1.5,1.5,0,0,1-.79,2.77Z"/><path class="cls-3" d="M304.8,511a1.51,1.51,0,0,1-.78-.22,1.5,1.5,0,0,1-.5-2.06c1-1.7,2.14-3.42,3.27-5.1a1.5,1.5,0,0,1,2.49,1.67c-1.1,1.65-2.18,3.33-3.2,5A1.49,1.49,0,0,1,304.8,511Z"/><path class="cls-3" d="M315.1,496.36a1.46,1.46,0,0,1-.94-.33,1.51,1.51,0,0,1-.23-2.11c2.51-3.12,5.18-6.17,7.94-9.07a1.5,1.5,0,0,1,2.17,2.07c-2.7,2.84-5.32,5.83-7.77,8.88A1.5,1.5,0,0,1,315.1,496.36Zm16.44-17.26a1.52,1.52,0,0,1-1.13-.5,1.5,1.5,0,0,1,.13-2.12c3-2.66,6.14-5.22,9.35-7.61a1.5,1.5,0,1,1,1.79,2.4c-3.14,2.35-6.22,4.85-9.15,7.45A1.45,1.45,0,0,1,331.54,479.1Z"/><path class="cls-3" d="M350.64,464.83a1.5,1.5,0,0,1-.79-2.77c1.7-1.06,3.46-2.11,5.21-3.1a1.5,1.5,0,0,1,1.48,2.61c-1.72,1-3.44,2-5.1,3A1.48,1.48,0,0,1,350.64,464.83Z"/><path class="cls-3" d="M350.64,363.33a1.5,1.5,0,0,1-.79-2.78c1.71-1.06,3.47-2.11,5.21-3.09a1.5,1.5,0,1,1,1.48,2.61c-1.71,1-3.43,2-5.1,3A1.54,1.54,0,0,1,350.64,363.33Z"/><path class="cls-3" d="M315.3,394.57a1.46,1.46,0,0,1-.94-.33,1.5,1.5,0,0,1-.23-2.11c2.5-3.09,5.16-6.11,7.91-9a1.5,1.5,0,1,1,2.17,2.08c-2.7,2.81-5.3,5.77-7.74,8.8A1.52,1.52,0,0,1,315.3,394.57Zm16.36-17.1a1.47,1.47,0,0,1-1.12-.51,1.49,1.49,0,0,1,.13-2.11c3-2.64,6.11-5.18,9.29-7.55a1.5,1.5,0,0,1,1.79,2.41c-3.12,2.32-6.18,4.81-9.09,7.38A1.47,1.47,0,0,1,331.66,377.47Z"/><path class="cls-3" d="M305,409.15a1.52,1.52,0,0,1-.79-.22,1.5,1.5,0,0,1-.49-2.07c1-1.7,2.15-3.41,3.28-5.09a1.5,1.5,0,0,1,2.49,1.68c-1.11,1.64-2.19,3.32-3.22,5A1.49,1.49,0,0,1,305,409.15Z"/><path class="cls-3" d="M426.66,222.51h-.16a40.5,40.5,0,0,1-12.57-2,1.5,1.5,0,1,1,.93-2.85,37.58,37.58,0,0,0,11.64,1.84h.16a1.5,1.5,0,1,1,0,3Zm12.1-2a1.5,1.5,0,0,1-.47-2.93,37.32,37.32,0,0,0,10.47-5.4,1.5,1.5,0,1,1,1.78,2.42,40.62,40.62,0,0,1-11.31,5.83A1.6,1.6,0,0,1,438.76,220.55ZM403.48,215a1.43,1.43,0,0,1-.88-.29,40.87,40.87,0,0,1-9-9A1.5,1.5,0,1,1,396,204a37.92,37.92,0,0,0,8.34,8.34,1.5,1.5,0,0,1-.88,2.71Zm54.81-8.79a1.5,1.5,0,0,1-1.22-2.38,37.63,37.63,0,0,0,5.34-10.51,1.5,1.5,0,1,1,2.85.92,40.37,40.37,0,0,1-5.76,11.35A1.48,1.48,0,0,1,458.29,206.23Zm-69.07-10.79a1.5,1.5,0,0,1-1.43-1,40.81,40.81,0,0,1-2-12.57,1.5,1.5,0,0,1,1.5-1.5h0a1.5,1.5,0,0,1,1.5,1.5,37.89,37.89,0,0,0,1.85,11.64,1.49,1.49,0,0,1-1,1.89A1.47,1.47,0,0,1,389.22,195.44Zm76.49-12.26a1.5,1.5,0,0,1-1.5-1.49,37.56,37.56,0,0,0-1.87-11.64,1.5,1.5,0,0,1,2.85-.94,40.53,40.53,0,0,1,2,12.57,1.5,1.5,0,0,1-1.5,1.5Zm-76.52-12a1.48,1.48,0,0,1-.46-.08,1.5,1.5,0,0,1-1-1.89,40.78,40.78,0,0,1,5.78-11.34,1.5,1.5,0,1,1,2.43,1.77,37.6,37.6,0,0,0-5.35,10.5A1.52,1.52,0,0,1,389.19,171.23Zm69-11a1.51,1.51,0,0,1-1.21-.61,37.7,37.7,0,0,0-8.36-8.32,1.5,1.5,0,0,1,1.76-2.43,40.87,40.87,0,0,1,9,9,1.49,1.49,0,0,1-1.21,2.38Zm-54.74-8.56a1.5,1.5,0,0,1-.88-2.71,40.61,40.61,0,0,1,11.32-5.81,1.5,1.5,0,1,1,.94,2.85,37.26,37.26,0,0,0-10.49,5.39A1.54,1.54,0,0,1,403.41,151.62ZM438.53,146a1.51,1.51,0,0,1-.46-.07,37.37,37.37,0,0,0-11.57-1.82,1.53,1.53,0,0,1-1.54-1.5,1.46,1.46,0,0,1,1.46-1.5v1.5l0-1.5h0a40.69,40.69,0,0,1,12.54,2,1.5,1.5,0,0,1-.47,2.93Z"/><path class="cls-3" d="M426.45,210.54h0A28.41,28.41,0,0,1,414,207.67a1.5,1.5,0,0,1,1.31-2.7,25.47,25.47,0,0,0,11.16,2.57,1.5,1.5,0,1,1,0,3Zm11.82-2.67a1.5,1.5,0,0,1-.65-2.85,26.09,26.09,0,0,0,9-7.13,1.52,1.52,0,0,1,2.11-.23,1.5,1.5,0,0,1,.23,2.11,29,29,0,0,1-10,7.95A1.46,1.46,0,0,1,438.27,207.87Zm-33.09-7.62a1.46,1.46,0,0,1-1.17-.57,28.89,28.89,0,0,1-5.55-11.52,1.5,1.5,0,0,1,2.93-.66,25.74,25.74,0,0,0,5,10.31,1.51,1.51,0,0,1-1.18,2.44Zm47.87-10.81a2.09,2.09,0,0,1-.34,0,1.5,1.5,0,0,1-1.12-1.8,25.63,25.63,0,0,0,.66-5.81,26,26,0,0,0-.62-5.64,1.5,1.5,0,1,1,2.92-.66,28.38,28.38,0,0,1,.7,6.31,28.82,28.82,0,0,1-.74,6.48A1.5,1.5,0,0,1,453.05,189.44Zm-53.11-12.22a2.09,2.09,0,0,1-.34,0,1.5,1.5,0,0,1-1.12-1.8,28.76,28.76,0,0,1,5.57-11.51,1.5,1.5,0,0,1,2.34,1.88,25.81,25.81,0,0,0-5,10.3A1.5,1.5,0,0,1,399.94,177.22Zm47.92-10.83a1.5,1.5,0,0,1-1.18-.56,26,26,0,0,0-8.92-7.18,1.5,1.5,0,0,1,1.31-2.7,29.12,29.12,0,0,1,10,8,1.49,1.49,0,0,1-1.17,2.43Zm-33.17-7.64a1.5,1.5,0,0,1-.65-2.85,28.39,28.39,0,0,1,12.46-2.84h.11a1.5,1.5,0,0,1,0,3h-.11a25.47,25.47,0,0,0-11.16,2.54A1.51,1.51,0,0,1,414.69,158.75Z"/><path class="cls-3" d="M426.66,332.84h-.16a40.5,40.5,0,0,1-12.57-2,1.5,1.5,0,1,1,.93-2.85,37.58,37.58,0,0,0,11.64,1.84h.16a1.5,1.5,0,0,1,0,3Zm12.1-2a1.5,1.5,0,0,1-.47-2.93,37.85,37.85,0,0,0,10.47-5.4,1.5,1.5,0,1,1,1.78,2.42,40.89,40.89,0,0,1-11.31,5.83A1.6,1.6,0,0,1,438.76,330.88Zm-35.28-5.53a1.55,1.55,0,0,1-.89-.29,41.26,41.26,0,0,1-9-9A1.5,1.5,0,0,1,396,314.3a37.87,37.87,0,0,0,8.34,8.33,1.5,1.5,0,0,1-.88,2.72Zm54.81-8.79a1.47,1.47,0,0,1-.88-.29,1.49,1.49,0,0,1-.33-2.09,37.66,37.66,0,0,0,5.33-10.52,1.5,1.5,0,0,1,2.85.92,40.53,40.53,0,0,1-5.75,11.36A1.53,1.53,0,0,1,458.29,316.56Zm-69.07-10.79a1.5,1.5,0,0,1-1.43-1,40.51,40.51,0,0,1-2-12.57,1.51,1.51,0,0,1,1.5-1.51h0a1.5,1.5,0,0,1,1.5,1.5,37.54,37.54,0,0,0,1.85,11.64,1.5,1.5,0,0,1-1,1.9A1.47,1.47,0,0,1,389.22,305.77Zm76.49-12.26a1.5,1.5,0,0,1-1.5-1.5,37.5,37.5,0,0,0-1.87-11.63,1.5,1.5,0,1,1,2.85-.94,40.48,40.48,0,0,1,2,12.57,1.5,1.5,0,0,1-1.5,1.5Zm-76.52-12a1.47,1.47,0,0,1-.46-.07,1.51,1.51,0,0,1-1-1.89,40.64,40.64,0,0,1,5.78-11.34A1.5,1.5,0,0,1,396,270a37.66,37.66,0,0,0-5.35,10.51A1.51,1.51,0,0,1,389.19,281.55Zm69-11a1.52,1.52,0,0,1-1.21-.62,38.14,38.14,0,0,0-8.36-8.32,1.5,1.5,0,0,1,1.76-2.43,40.87,40.87,0,0,1,9,9,1.5,1.5,0,0,1-.32,2.1A1.55,1.55,0,0,1,458.15,270.51ZM403.42,262a1.5,1.5,0,0,1-.89-2.71,40.61,40.61,0,0,1,11.32-5.81,1.5,1.5,0,1,1,.94,2.85,37.5,37.5,0,0,0-10.49,5.38A1.47,1.47,0,0,1,403.42,262Zm35.11-5.65a1.51,1.51,0,0,1-.46-.07,37.66,37.66,0,0,0-11.57-1.81,1.54,1.54,0,0,1-1.54-1.5,1.46,1.46,0,0,1,1.46-1.5h.08a40.63,40.63,0,0,1,12.5,2,1.5,1.5,0,0,1-.47,2.92Z"/><path class="cls-3" d="M426.45,320.87h0A28.55,28.55,0,0,1,414,318a1.5,1.5,0,0,1,1.31-2.7,25.47,25.47,0,0,0,11.16,2.57,1.5,1.5,0,0,1,0,3Zm11.82-2.67a1.52,1.52,0,0,1-1.36-.85,1.49,1.49,0,0,1,.71-2,26.2,26.2,0,0,0,9-7.13,1.5,1.5,0,1,1,2.34,1.88,29,29,0,0,1-10,7.95A1.46,1.46,0,0,1,438.27,318.2Zm-33.09-7.62A1.49,1.49,0,0,1,404,310a29,29,0,0,1-5.55-11.52,1.51,1.51,0,0,1,1.14-1.8,1.5,1.5,0,0,1,1.79,1.14,25.74,25.74,0,0,0,5,10.31,1.51,1.51,0,0,1-1.18,2.44Zm47.87-10.82-.34,0a1.51,1.51,0,0,1-1.12-1.8,25.93,25.93,0,0,0,0-11.45,1.5,1.5,0,1,1,2.92-.66,28.36,28.36,0,0,1,.7,6.3,28.69,28.69,0,0,1-.74,6.48A1.48,1.48,0,0,1,453.05,299.76Zm-53.11-12.22a1.37,1.37,0,0,1-.34,0,1.49,1.49,0,0,1-1.12-1.79,28.76,28.76,0,0,1,5.57-11.51,1.5,1.5,0,1,1,2.34,1.87,25.85,25.85,0,0,0-5,10.31A1.5,1.5,0,0,1,399.94,287.54Zm47.92-10.82a1.48,1.48,0,0,1-1.18-.57,26.23,26.23,0,0,0-8.92-7.18,1.5,1.5,0,1,1,1.31-2.69,28.89,28.89,0,0,1,10,8,1.49,1.49,0,0,1-.24,2.1A1.51,1.51,0,0,1,447.86,276.72Zm-33.17-7.64a1.5,1.5,0,0,1-.65-2.85,28.4,28.4,0,0,1,12.46-2.85,1.55,1.55,0,0,1,1.56,1.5,1.46,1.46,0,0,1-1.45,1.5h-.15a25.44,25.44,0,0,0-11.12,2.55A1.51,1.51,0,0,1,414.69,269.08Z"/><path class="cls-3" d="M413,522.13h-5.44a1.5,1.5,0,0,1,0-3H413a1.5,1.5,0,0,1,0,3Z"/><path class="cls-3" d="M397.2,522.13H386.84a1.5,1.5,0,0,1,0-3H397.2a1.5,1.5,0,0,1,0,3Zm-20.71,0h-.05a13.47,13.47,0,0,1-10.21-4.86,1.5,1.5,0,1,1,2.36-1.85,10.47,10.47,0,0,0,7.94,3.71,1.5,1.5,0,0,1,0,3Zm-9.7-14.07a1.76,1.76,0,0,1-.45-.07,1.5,1.5,0,0,1-1-1.89l3.16-9.87a1.5,1.5,0,1,1,2.86.92L368.22,507A1.5,1.5,0,0,1,366.79,508.05Z"/><path class="cls-3" d="M373.12,488.3a1.41,1.41,0,0,1-.45-.07,1.51,1.51,0,0,1-1-1.89l1.66-5.17a1.5,1.5,0,0,1,2.86.91l-1.66,5.18A1.49,1.49,0,0,1,373.12,488.3Z"/><path class="cls-3" d="M479.94,488.3a1.51,1.51,0,0,1-1.43-1l-1.66-5.18a1.5,1.5,0,0,1,2.86-.91l1.66,5.17a1.5,1.5,0,0,1-1,1.89A1.47,1.47,0,0,1,479.94,488.3Z"/><path class="cls-3" d="M475.84,522.13h-1.35a1.5,1.5,0,0,1,0-3h1.35a11.21,11.21,0,0,0,7.66-2.84,1.5,1.5,0,1,1,2.05,2.18A14.22,14.22,0,0,1,475.84,522.13Zm-12.2,0H452.8a1.5,1.5,0,0,1,0-3h10.84a1.5,1.5,0,0,1,0,3ZM486.56,509a1.52,1.52,0,0,1-1.43-1l-3.31-10.33a1.52,1.52,0,0,1,1-1.89,1.5,1.5,0,0,1,1.89,1L488,507a1.5,1.5,0,0,1-1,1.89A1.47,1.47,0,0,1,486.56,509Z"/><path class="cls-3" d="M441.94,522.13H436.5a1.5,1.5,0,0,1,0-3h5.44a1.5,1.5,0,0,1,0,3Z"/><path class="cls-3" d="M429.36,364a1.5,1.5,0,0,1-1.37-.88c-.55-1.21-1.11-2.37-1.69-3.46-.58,1.09-1.14,2.25-1.69,3.46a1.5,1.5,0,1,1-2.73-1.24,63.15,63.15,0,0,1,3.13-6.06,1.5,1.5,0,0,1,2.58,0,63,63,0,0,1,3.14,6.06,1.5,1.5,0,0,1-1.37,2.12Z"/><path class="cls-3" d="M418.68,518.92a1.51,1.51,0,0,1-1.44-1.06c-1.2-4-2.32-8.26-3.31-12.81a1.5,1.5,0,0,1,2.93-.64c1,4.47,2.07,8.7,3.25,12.57a1.5,1.5,0,0,1-1,1.87A1.39,1.39,0,0,1,418.68,518.92ZM413,493.34a1.49,1.49,0,0,1-1.48-1.27c-.65-4.21-1.22-8.61-1.69-13.07a1.5,1.5,0,0,1,3-.32c.47,4.42,1,8.77,1.67,12.93a1.5,1.5,0,0,1-1.25,1.72Zm-2.75-26.06a1.51,1.51,0,0,1-1.5-1.41c-.26-4.32-.43-8.75-.52-13.16a1.5,1.5,0,0,1,1.47-1.53h0a1.49,1.49,0,0,1,1.5,1.47c.09,4.37.26,8.76.52,13a1.5,1.5,0,0,1-1.41,1.58Zm-.52-26.21h0a1.51,1.51,0,0,1-1.47-1.53c.09-4.42.27-8.85.53-13.16a1.5,1.5,0,1,1,3,.18c-.26,4.27-.43,8.66-.52,13A1.5,1.5,0,0,1,409.73,441.07Zm1.6-26.17h-.16a1.49,1.49,0,0,1-1.34-1.64c.47-4.47,1-8.87,1.69-13.08a1.5,1.5,0,0,1,3,.46c-.65,4.16-1.21,8.51-1.67,12.93A1.51,1.51,0,0,1,411.33,414.9ZM415.4,389l-.33,0a1.51,1.51,0,0,1-1.14-1.79c1-4.55,2.11-8.86,3.32-12.81a1.5,1.5,0,0,1,2.87.88c-1.19,3.87-2.28,8.1-3.26,12.57A1.49,1.49,0,0,1,415.4,389Z"/><path class="cls-3" d="M426.3,537.13a1.49,1.49,0,0,1-1.29-.74,60.87,60.87,0,0,1-3.13-6.06,1.5,1.5,0,1,1,2.73-1.24c.55,1.21,1.11,2.37,1.69,3.46.58-1.09,1.14-2.25,1.69-3.46a1.5,1.5,0,1,1,2.73,1.24,63.07,63.07,0,0,1-3.13,6.06A1.49,1.49,0,0,1,426.3,537.13Z"/><path class="cls-3" d="M433.92,518.93a1.35,1.35,0,0,1-.44-.07,1.5,1.5,0,0,1-1-1.87c1.19-3.88,2.29-8.11,3.26-12.57a1.5,1.5,0,1,1,2.93.64c-1,4.54-2.11,8.85-3.32,12.8A1.49,1.49,0,0,1,433.92,518.93Zm5.68-25.58-.23,0a1.5,1.5,0,0,1-1.26-1.71c.65-4.16,1.21-8.51,1.68-12.93a1.5,1.5,0,0,1,3,.32c-.47,4.46-1,8.86-1.69,13.07A1.5,1.5,0,0,1,439.6,493.35Zm2.75-26.07h-.09a1.5,1.5,0,0,1-1.41-1.59c.26-4.29.44-8.68.52-13a1.5,1.5,0,0,1,1.5-1.47h0a1.5,1.5,0,0,1,1.47,1.53c-.09,4.4-.26,8.83-.52,13.16A1.5,1.5,0,0,1,442.35,467.28Zm.52-26.21a1.5,1.5,0,0,1-1.5-1.47c-.08-4.38-.26-8.76-.52-13a1.5,1.5,0,0,1,3-.18c.26,4.31.43,8.73.52,13.16a1.49,1.49,0,0,1-1.47,1.52Zm-1.59-26.16a1.5,1.5,0,0,1-1.49-1.34c-.46-4.43-1-8.77-1.67-12.93a1.5,1.5,0,0,1,3-.46c.66,4.2,1.22,8.6,1.69,13.07a1.49,1.49,0,0,1-1.33,1.65ZM437.21,389a1.51,1.51,0,0,1-1.47-1.18c-1-4.47-2.07-8.7-3.25-12.57a1.5,1.5,0,0,1,2.87-.88c1.2,3.95,2.32,8.26,3.31,12.81a1.48,1.48,0,0,1-1.14,1.78A1.22,1.22,0,0,1,437.21,389Z"/><path class="cls-3" d="M361.8,119.63h-6a1.5,1.5,0,0,1,0-3h6a1.5,1.5,0,0,1,0,3Z"/><path class="cls-3" d="M479.08,119.63H467.35a1.5,1.5,0,0,1,0-3h11.73a1.5,1.5,0,1,1,0,3Zm-23.46,0H443.89a1.5,1.5,0,0,1,0-3h11.73a1.5,1.5,0,0,1,0,3Zm-23.45,0H420.44a1.5,1.5,0,1,1,0-3h11.73a1.5,1.5,0,0,1,0,3Zm-23.46,0H397a1.5,1.5,0,0,1,0-3h11.73a1.5,1.5,0,0,1,0,3Zm-23.45,0H373.53a1.5,1.5,0,0,1,0-3h11.73a1.5,1.5,0,0,1,0,3Z"/><path class="cls-3" d="M496.8,119.63h-6a1.5,1.5,0,0,1,0-3h6a1.5,1.5,0,1,1,0,3Z"/><path class="cls-1" d="M187.36,521H72.52a2.1,2.1,0,0,1-1.79-1,2.07,2.07,0,0,1,0-2.06L154.2,363.42a2.1,2.1,0,0,1,1.84-1.09h58.49l60.78-111.66a2.08,2.08,0,0,1,1.83-1.09h27.14a2.09,2.09,0,0,1,2.09,2.09V518.92a2.08,2.08,0,0,1-2.09,2.09H187.36Zm3.53-4.18H302.2V366.5H273.73ZM76,516.83H185.27V416.61a2,2,0,0,1,.26-1l26.73-49.12h-55Zm113.42-99.68v93.66L269,366.5H217Zm29.84-54.82H302.2V253.76H278.38Z"/><circle class="cls-1" cx="189.45" cy="518.92" r="16.7"/><circle class="cls-1" cx="73.35" cy="518.92" r="16.7"/><circle class="cls-4" cx="189.45" cy="518.92" r="8.35"/><circle class="cls-4" cx="73.35" cy="518.92" r="8.35"/><circle class="cls-1" cx="301.15" cy="518.88" r="16.7"/><circle class="cls-4" cx="301.15" cy="518.88" r="8.35"/></g></g></svg>